<svg xmlns="http://www.w3.org/2000/svg" width="42" height="42" viewBox="0 0 42 42">
  <g id="avatar-icon" transform="translate(-728 -2568)">
    <circle id="avatar-icon-2" data-name="avatar-icon" cx="21" cy="21" r="21" transform="translate(728 2568)" fill="#1d4c74"/>
    <g id="Group_78" data-name="Group 78" transform="translate(739.558 2578.092)">
      <g id="Group_34" data-name="Group 34" transform="translate(3.774)">
        <g id="Group_33" data-name="Group 33" transform="translate(0)">
          <path id="Path_9787" data-name="Path 9787" d="M126.661,0a5.661,5.661,0,1,0,5.661,5.661A5.667,5.667,0,0,0,126.661,0Z" transform="translate(-121)" fill="#fff"/>
        </g>
      </g>
      <g id="Group_36" data-name="Group 36" transform="translate(0 12.579)">
        <g id="Group_35" data-name="Group 35" transform="translate(0)">
          <path id="Path_9788" data-name="Path 9788" d="M47.477,302.44A8.07,8.07,0,0,0,41.692,300H39.176a8.07,8.07,0,0,0-5.785,2.44A8.25,8.25,0,0,0,31,308.26a.629.629,0,0,0,.629.629H49.24a.629.629,0,0,0,.629-.629A8.25,8.25,0,0,0,47.477,302.44Z" transform="translate(-31 -300)" fill="#fff"/>
        </g>
      </g>
    </g>
  </g>
</svg>
