<svg width="24" height="20" viewBox="0 0 24 20" fill="none" xmlns="http://www.w3.org/2000/svg">
<path d="M4.99739 2.50905C4.99929 2.05052 4.87498 1.60031 4.63808 1.20772C4.40117 0.815135 4.06081 0.495302 3.65425 0.283251C3.2477 0.0711994 2.79064 -0.0248936 2.33311 0.00549396C1.87559 0.0358816 1.43525 0.191578 1.06031 0.455534C0.685376 0.71949 0.3903 1.08153 0.207396 1.502C0.024493 1.92247 -0.0391839 2.38517 0.0233385 2.83942C0.0858609 3.29366 0.272172 3.72195 0.561869 4.07738C0.851566 4.4328 1.23348 4.70166 1.66578 4.8545V19.1671C1.66578 19.388 1.75354 19.5999 1.90974 19.756C2.06594 19.9122 2.27779 20 2.49869 20C2.71959 20 2.93144 19.9122 3.08764 19.756C3.24384 19.5999 3.33159 19.388 3.33159 19.1671V4.8545C3.8171 4.68286 4.23771 4.3654 4.53589 3.94556C4.83408 3.52572 4.99526 3.024 4.99739 2.50905ZM19.1567 0.0103439H10.8277C9.72362 0.0116664 8.66513 0.450851 7.88442 1.23156C7.10371 2.01227 6.66452 3.07076 6.6632 4.17486V15.0026C6.66533 15.5175 6.82652 16.0193 7.1247 16.4391C7.42288 16.8589 7.8435 17.1764 8.329 17.348V18.3342C8.329 18.776 8.50451 19.1997 8.81691 19.5121C9.12931 19.8245 9.55301 20 9.99481 20H11.6606C12.1024 20 12.5261 19.8245 12.8385 19.5121C13.1509 19.1997 13.3264 18.776 13.3264 18.3342V17.5013H16.658V18.3342C16.658 18.776 16.8335 19.1997 17.1459 19.5121C17.4583 19.8245 17.882 20 18.3238 20H19.9896C20.4314 20 20.8551 19.8245 21.1675 19.5121C21.4799 19.1997 21.6554 18.776 21.6554 18.3342V17.348C22.1409 17.1764 22.5616 16.8589 22.8597 16.4391C23.1579 16.0193 23.3191 15.5175 23.3212 15.0026V4.17486C23.3199 3.07076 22.8807 2.01227 22.1 1.23156C21.3193 0.450851 20.2608 0.0116664 19.1567 0.0103439ZM9.99481 14.1697C9.99481 14.005 10.0437 13.8439 10.1352 13.7069C10.2267 13.57 10.3568 13.4632 10.509 13.4002C10.6612 13.3371 10.8286 13.3206 10.9902 13.3528C11.1518 13.3849 11.3002 13.4642 11.4167 13.5807C11.5331 13.6972 11.6125 13.8456 11.6446 14.0072C11.6767 14.1688 11.6603 14.3362 11.5972 14.4884C11.5342 14.6406 11.4274 14.7707 11.2904 14.8622C11.1535 14.9537 10.9924 15.0026 10.8277 15.0026C10.6068 15.0026 10.395 14.9148 10.2388 14.7586C10.0826 14.6024 9.99481 14.3906 9.99481 14.1697ZM18.3238 14.1697C18.3238 14.005 18.3727 13.8439 18.4642 13.7069C18.5557 13.57 18.6858 13.4632 18.838 13.4002C18.9902 13.3371 19.1577 13.3206 19.3192 13.3528C19.4808 13.3849 19.6292 13.4642 19.7457 13.5807C19.8622 13.6972 19.9415 13.8456 19.9736 14.0072C20.0058 14.1688 19.9893 14.3362 19.9262 14.4884C19.8632 14.6406 19.7564 14.7707 19.6195 14.8622C19.4825 14.9537 19.3215 15.0026 19.1567 15.0026C18.9358 15.0026 18.724 14.9148 18.5678 14.7586C18.4116 14.6024 18.3238 14.3906 18.3238 14.1697ZM21.6554 10.0052C21.6554 10.2261 21.5677 10.4379 21.4115 10.5941C21.2553 10.7503 21.0434 10.8381 20.8225 10.8381H9.16191C8.94101 10.8381 8.72915 10.7503 8.57296 10.5941C8.41676 10.4379 8.329 10.2261 8.329 10.0052V5.00776C8.329 4.56596 8.50451 4.14226 8.81691 3.82986C9.12931 3.51746 9.55301 3.34195 9.99481 3.34195H19.9896C20.4314 3.34195 20.8551 3.51746 21.1675 3.82986C21.4799 4.14226 21.6554 4.56596 21.6554 5.00776V10.0052Z" fill="#F6A73B"/>
</svg>
