<svg xmlns="http://www.w3.org/2000/svg" width="23.187" height="23.187" viewBox="0 0 23.187 23.187">
  <g id="caleder-icon" transform="translate(-2 -2)">
    <g id="Layer_93" data-name="Layer 93" transform="translate(2 2)">
      <path id="Path_9835" data-name="Path 9835" d="M21.709,5.478H20.55V3.159a1.159,1.159,0,1,0-2.319,0V5.478H8.956V3.159a1.159,1.159,0,0,0-2.319,0V5.478H5.478A3.478,3.478,0,0,0,2,8.956v1.159H25.187V8.956A3.478,3.478,0,0,0,21.709,5.478Z" transform="translate(-2 -2)" fill="#1d4c74"/>
      <path id="Path_9836" data-name="Path 9836" d="M2,20.275a3.478,3.478,0,0,0,3.478,3.478H21.709a3.478,3.478,0,0,0,3.478-3.478V11H2Z" transform="translate(-2 -0.566)" fill="#1d4c74"/>
    </g>
  </g>
</svg>
