<svg width="25" height="20" viewBox="0 0 25 20" fill="none" xmlns="http://www.w3.org/2000/svg">
<path d="M23.6078 9.37833C23.3541 9.2305 23.0656 9.15308 22.772 9.15405C22.4784 9.15503 22.1904 9.23438 21.9378 9.38389L18.8889 11.1628V17.1711L21.9378 18.95C22.2006 19.1033 22.4889 19.18 22.7778 19.18C23.0693 19.1795 23.3555 19.1023 23.6078 18.9561C23.8632 18.8115 24.0754 18.6013 24.2225 18.3473C24.3695 18.0933 24.4462 17.8046 24.4444 17.5111V10.8244C24.4444 10.2206 24.1317 9.68 23.6078 9.37944V9.37833ZM15.89 8.49278C16.476 8.05419 16.9517 7.48506 17.2794 6.83056C17.6071 6.17605 17.7777 5.45418 17.7778 4.72222C17.7778 3.46981 17.2803 2.2687 16.3947 1.38311C15.5091 0.497519 14.308 0 13.0556 0C11.8031 0 10.602 0.497519 9.71644 1.38311C8.83085 2.2687 8.33333 3.46981 8.33333 4.72222C8.3329 5.41048 8.48329 6.09048 8.77392 6.71436C9.06455 7.33825 9.48837 7.89086 10.0156 8.33333H6.99278C7.4154 7.94443 7.75274 7.47208 7.98348 6.94614C8.21423 6.4202 8.33335 5.85211 8.33333 5.27778C8.33333 4.17271 7.89435 3.1129 7.11294 2.3315C6.33154 1.5501 5.27174 1.11111 4.16667 1.11111C3.0616 1.11111 2.00179 1.5501 1.22039 2.3315C0.438987 3.1129 0 4.17271 0 5.27778C2.37201e-07 5.91789 0.147857 6.54935 0.432039 7.12292C0.716222 7.69649 1.12905 8.19666 1.63833 8.58444C0.675 9.02111 0 9.98667 0 11.1111V17.2222C0 18.7539 1.24611 20 2.77778 20H15C16.5317 20 17.7778 18.7539 17.7778 17.2222V11.1111C17.7778 9.89222 16.9839 8.86611 15.89 8.49278ZM2.5 5.27778C2.5 5.05891 2.54311 4.84218 2.62687 4.63997C2.71063 4.43776 2.83339 4.25403 2.98816 4.09927C3.14292 3.9445 3.32665 3.82174 3.52886 3.73798C3.73107 3.65422 3.9478 3.61111 4.16667 3.61111C4.38554 3.61111 4.60226 3.65422 4.80447 3.73798C5.00668 3.82174 5.19041 3.9445 5.34518 4.09927C5.49994 4.25403 5.62271 4.43776 5.70647 4.63997C5.79022 4.84218 5.83333 5.05891 5.83333 5.27778C5.83333 5.71981 5.65774 6.14373 5.34518 6.45629C5.03262 6.76885 4.60869 6.94444 4.16667 6.94444C3.72464 6.94444 3.30072 6.76885 2.98816 6.45629C2.67559 6.14373 2.5 5.71981 2.5 5.27778ZM5.55556 17.2222H3.33333C3.18599 17.2222 3.04468 17.1637 2.9405 17.0595C2.83631 16.9553 2.77778 16.814 2.77778 16.6667C2.77778 16.5193 2.83631 16.378 2.9405 16.2738C3.04468 16.1696 3.18599 16.1111 3.33333 16.1111H5.55556C5.7029 16.1111 5.84421 16.1696 5.94839 16.2738C6.05258 16.378 6.11111 16.5193 6.11111 16.6667C6.11111 16.814 6.05258 16.9553 5.94839 17.0595C5.84421 17.1637 5.7029 17.2222 5.55556 17.2222ZM13.0556 6.94444C12.4662 6.94444 11.901 6.71032 11.4842 6.29357C11.0675 5.87682 10.8333 5.31159 10.8333 4.72222C10.8333 4.13285 11.0675 3.56762 11.4842 3.15087C11.901 2.73413 12.4662 2.5 13.0556 2.5C13.6449 2.5 14.2102 2.73413 14.6269 3.15087C15.0437 3.56762 15.2778 4.13285 15.2778 4.72222C15.2778 5.31159 15.0437 5.87682 14.6269 6.29357C14.2102 6.71032 13.6449 6.94444 13.0556 6.94444Z" fill="#F6A73B"/>
</svg>
