<svg width="20" height="20" viewBox="0 0 20 20" fill="none" xmlns="http://www.w3.org/2000/svg">
<path d="M1.17188 12.8906V18.2422C1.17188 19.2115 1.96039 20 2.92969 20H18.1641C19.1334 20 20 19.2115 20 18.2422V12.8906H1.17188ZM4.10156 17.6563C3.77797 17.6563 3.51563 17.3939 3.51563 17.0703C3.51563 16.7467 3.77797 16.4844 4.10156 16.4844C4.42516 16.4844 4.6875 16.7466 4.6875 17.0703C4.6875 17.3939 4.42516 17.6563 4.10156 17.6563ZM16.9922 17.6563C16.6686 17.6563 16.4063 17.3939 16.4063 17.0703C16.4063 16.7467 16.6686 16.4844 16.9922 16.4844C17.3158 16.4844 17.5781 16.7466 17.5781 17.0703C17.5781 17.3939 17.3158 17.6563 16.9922 17.6563Z" fill="#F6A73B"/>
<path d="M1.17188 9.375C1.81908 9.375 2.34375 8.85033 2.34375 8.20313C2.34375 7.55592 1.81908 7.03125 1.17188 7.03125C0.524666 7.03125 0 7.55592 0 8.20313C0 8.85033 0.524666 9.375 1.17188 9.375Z" fill="#F6A73B"/>
<path d="M8.71086 2.44648L6.38586 3.06945L9.79403 5.79585L12.119 5.17292L8.71086 2.44648ZM19.9796 2.48101L19.6762 1.30331C19.425 0.365538 18.3829 -0.190946 17.4452 0.0603427L13.8477 1.07003L17.2558 3.79652L19.5652 3.19863C19.8778 3.11488 20.0633 2.79359 19.9796 2.48101ZM12.4417 1.44675L10.1168 2.06972L13.525 4.7962L15.8499 4.17323L12.4417 1.44675ZM4.97996 3.44616L2.65524 4.06909L6.06356 6.7955L8.38813 6.17257L4.97996 3.44616ZM1.3018 4.48781C0.700938 4.77855 0.310234 5.36956 0.302734 6.03054C0.571953 5.92245 0.864063 5.85937 1.17156 5.85937C2.22113 5.85937 3.10098 6.55695 3.39867 7.50953L4.65758 7.17222L1.3018 4.48781ZM14.5711 8.20312L12.2274 11.7187H14.3344L16.6783 8.20312H14.5711ZM11.0555 8.20312L8.71172 11.7187H10.819L13.1627 8.20312H11.0555ZM19.4138 8.20312H18.0866L15.7428 11.7187H19.9997V8.78906C19.9997 8.46542 19.7374 8.20312 19.4138 8.20312ZM7.53985 8.20312L5.1961 11.7187H7.30332L9.64708 8.20312H7.53985ZM3.51531 8.20312C3.51531 9.49574 2.46418 10.5469 1.17156 10.5469V11.7187H3.7877L6.13145 8.20312H3.51531Z" fill="#F6A73B"/>
</svg>
