<svg xmlns="http://www.w3.org/2000/svg" width="20.001" height="20" viewBox="0 0 20.001 20">
  <g id="dimension-icon" transform="translate(0 -0.018)">
    <path id="Path_9817" data-name="Path 9817" d="M117.8,147.338l-5.392-3.1V150.6l5.392,3.1Z" transform="translate(-107.912 -138.258)" fill="#1d4c74"/>
    <path id="Path_9818" data-name="Path 9818" d="M138.163,37.1,132.771,34l-5.393,3.1,5.393,3.1Z" transform="translate(-122.013 -32.731)" fill="#1d4c74"/>
    <path id="Path_9819" data-name="Path 9819" d="M289.057,153.7l5.392-3.1v-6.363l-5.392,3.1Z" transform="translate(-277.258 -138.258)" fill="#1d4c74"/>
    <path id="Path_9820" data-name="Path 9820" d="M17.95,15.916l-.828.828.637.637H2.637V2.261l.637.637L4.1,2.069,2.051.018,0,2.069.828,2.9l.637-.637V18.553H17.759l-.637.637.828.828L20,17.967Z" fill="#1d4c74"/>
  </g>
</svg>
