<svg id="dollar-icon" xmlns="http://www.w3.org/2000/svg" width="16" height="16" viewBox="0 0 16 16">
  <g id="Group_66" data-name="Group 66" transform="translate(0)">
    <path id="Path_9816" data-name="Path 9816" d="M13.657,2.343A8,8,0,0,0,2.343,13.657,8,8,0,0,0,13.657,2.343ZM8,7.5a2.25,2.25,0,0,1,.615,4.414.157.157,0,0,0-.115.151v.421A.509.509,0,0,1,8.024,13a.5.5,0,0,1-.524-.5v-.436a.157.157,0,0,0-.115-.15A2.254,2.254,0,0,1,5.75,9.764a.508.508,0,0,1,.485-.514.5.5,0,0,1,.515.5A1.25,1.25,0,1,0,8,8.5a2.25,2.25,0,0,1-.615-4.414A.157.157,0,0,0,7.5,3.936V3.514A.509.509,0,0,1,7.976,3a.5.5,0,0,1,.524.5v.436a.157.157,0,0,0,.115.15,2.254,2.254,0,0,1,1.635,2.15.508.508,0,0,1-.485.514.5.5,0,0,1-.515-.5A1.25,1.25,0,1,0,8,7.5Z" transform="translate(0 0)" fill="#1d4c74"/>
  </g>
</svg>
