<svg xmlns="http://www.w3.org/2000/svg" width="20.533" height="14" viewBox="0 0 20.533 14">
  <g id="eye-icon" transform="translate(0 -74.667)">
    <g id="Group_88" data-name="Group 88" transform="translate(0 74.667)">
      <g id="Group_87" data-name="Group 87">
        <g id="Group_86" data-name="Group 86">
          <path id="Path_9824" data-name="Path 9824" d="M173.467,170.667a2.8,2.8,0,1,0,2.8,2.8A2.8,2.8,0,0,0,173.467,170.667Z" transform="translate(-163.2 -166.467)" fill="#2d7b56"/>
          <path id="Path_9825" data-name="Path 9825" d="M10.267,74.667A11.038,11.038,0,0,0,0,81.667a11.029,11.029,0,0,0,20.533,0A11.034,11.034,0,0,0,10.267,74.667Zm0,11.667a4.667,4.667,0,1,1,4.667-4.667A4.668,4.668,0,0,1,10.267,86.334Z" transform="translate(0 -74.667)" fill="#2d7b56"/>
        </g>
      </g>
    </g>
  </g>
</svg>
