<svg xmlns="http://www.w3.org/2000/svg" width="17.578" height="20" viewBox="0 0 17.578 20">
  <g id="location-icon-green" transform="translate(-31)">
    <g id="Group_82" data-name="Group 82" transform="translate(33.344)">
      <g id="Group_81" data-name="Group 81">
        <path id="Path_9822" data-name="Path 9822" d="M97.445,0a6.442,6.442,0,0,0-5.239,10.2L96.952,17.6a.586.586,0,0,0,.986,0l4.766-7.431A6.445,6.445,0,0,0,97.445,0Zm0,9.375a2.93,2.93,0,1,1,2.93-2.93A2.933,2.933,0,0,1,97.445,9.375Z" transform="translate(-91)" fill="#2d7b56"/>
      </g>
    </g>
    <g id="Group_84" data-name="Group 84" transform="translate(31 13.465)">
      <g id="Group_83" data-name="Group 83">
        <path id="Path_9823" data-name="Path 9823" d="M44.37,344.7l-2.95,4.613a1.937,1.937,0,0,1-3.261,0L35.2,344.7c-2.6.6-4.2,1.7-4.2,3.019,0,2.284,4.528,3.516,8.789,3.516s8.789-1.232,8.789-3.516C48.578,346.4,46.973,345.3,44.37,344.7Z" transform="translate(-31 -344.695)" fill="#2d7b56"/>
      </g>
    </g>
  </g>
</svg>
