<svg xmlns="http://www.w3.org/2000/svg" width="21.094" height="24" viewBox="0 0 21.094 24">
  <g id="location-icon" transform="translate(-31)">
    <g id="Group_82" data-name="Group 82" transform="translate(33.344)">
      <g id="Group_81" data-name="Group 81">
        <path id="Path_9822" data-name="Path 9822" d="M99.2,0A8.043,8.043,0,0,0,91,7.888a7.667,7.667,0,0,0,1.535,4.59l6.04,9.063a.762.762,0,0,0,1.256,0l6.066-9.094a7.648,7.648,0,0,0,1.509-4.559A8.059,8.059,0,0,0,99.2,0Zm0,11.473a3.663,3.663,0,0,1-3.729-3.585,3.732,3.732,0,0,1,7.457,0A3.663,3.663,0,0,1,99.2,11.473Z" transform="translate(-91)" fill="#1d4c74"/>
      </g>
    </g>
    <g id="Group_84" data-name="Group 84" transform="translate(31 17.465)">
      <g id="Group_83" data-name="Group 83">
        <path id="Path_9823" data-name="Path 9823" d="M47.044,344.7,43.5,349.308a2.594,2.594,0,0,1-3.913,0L36.044,344.7c-3.12.6-5.044,1.7-5.044,3.019,0,2.284,5.434,3.516,10.547,3.516S52.094,350,52.094,347.715C52.094,346.4,50.168,345.3,47.044,344.7Z" transform="translate(-31 -344.695)" fill="#1d4c74"/>
      </g>
    </g>
  </g>
</svg>
