<svg xmlns="http://www.w3.org/2000/svg" width="18.818" height="18" viewBox="0 0 18.818 18">
  <g id="login-icon" transform="translate(0 -0.333)">
    <path id="Path_1" data-name="Path 1" d="M11.052,220.087H.544a.544.544,0,1,1,0-1.087H11.052a.544.544,0,1,1,0,1.087Zm0,0" transform="translate(0 -210.211)" fill="#fff"/>
    <path id="Path_2" data-name="Path 2" d="M224.547,140.515a.544.544,0,0,1-.384-.928l2.515-2.515-2.515-2.515a.544.544,0,0,1,.769-.769l2.9,2.9a.544.544,0,0,1,0,.769l-2.9,2.9A.539.539,0,0,1,224.547,140.515Zm0,0" transform="translate(-215.104 -127.74)" fill="#fff"/>
    <path id="Path_3" data-name="Path 3" d="M44.968,18.333a9.035,9.035,0,0,1-8.453-5.708.612.612,0,0,1,.349-.8.622.622,0,0,1,.8.347,7.773,7.773,0,1,0,0-5.688.623.623,0,0,1-.8.347.612.612,0,0,1-.349-.8,9.065,9.065,0,1,1,8.453,12.292Zm0,0" transform="translate(-35.233 0)" fill="#fff"/>
  </g>
</svg>
