<svg xmlns="http://www.w3.org/2000/svg" width="18" height="21" viewBox="0 0 18 21">
  <g id="mall-icon" transform="translate(-3 -1.5)">
    <path id="Path_9837" data-name="Path 9837" d="M19,6.5H17a5,5,0,0,0-10,0H5a2.006,2.006,0,0,0-2,2v12a2.006,2.006,0,0,0,2,2H19a2.006,2.006,0,0,0,2-2V8.5A2.006,2.006,0,0,0,19,6.5Zm-7-3a2.946,2.946,0,0,1,3,3H9A2.946,2.946,0,0,1,12,3.5Zm0,10A4.929,4.929,0,0,1,7.2,9.7a.937.937,0,0,1,.9-1.2.974.974,0,0,1,1,.8,3.011,3.011,0,0,0,5.8,0,.974.974,0,0,1,1-.8,1.1,1.1,0,0,1,1,1.3A5.16,5.16,0,0,1,12,13.5Z" fill="#f6a73b"/>
  </g>
</svg>
