<svg id="metro-icon" xmlns="http://www.w3.org/2000/svg" width="15.586" height="20.161" viewBox="0 0 15.586 20.161">
  <g id="Layer_2" data-name="Layer 2" transform="translate(0 0)">
    <path id="Path_9792" data-name="Path 9792" d="M18.683,19.655a3.563,3.563,0,0,0,2.076-3.411l-.409-9.42A5.029,5.029,0,0,0,15.314,2H10.626A5.03,5.03,0,0,0,5.59,6.824l-.409,9.42a3.563,3.563,0,0,0,2.076,3.411L5.981,20.932A.72.72,0,1,0,7,21.95L8.948,20h8.044l1.949,1.949a.72.72,0,1,0,1.018-1.018ZM10.09,16.4a.72.72,0,1,1-1.44,0v-.72a.72.72,0,0,1,1.44,0Zm.583-2.88a2.152,2.152,0,0,1-2.149-1.944l-.432-4.32A2.16,2.16,0,0,1,10.241,4.88H15.7a2.16,2.16,0,0,1,2.149,2.376l-.432,4.32a2.152,2.152,0,0,1-2.149,1.944ZM15.85,16.4v-.72a.72.72,0,0,1,1.44,0v.72a.72.72,0,1,1-1.44,0Z" transform="translate(-5.177 -2)" fill="#f6a73b"/>
    <path id="Path_9793" data-name="Path 9793" d="M17.387,8H11.929a.72.72,0,0,0-.72.792l.432,4.32a.72.72,0,0,0,.72.648h4.594a.72.72,0,0,0,.716-.648l.432-4.32A.72.72,0,0,0,17.383,8Z" transform="translate(-6.865 -3.68)" fill="#f6a73b"/>
  </g>
</svg>
