<svg width="19" height="20" viewBox="0 0 19 20" fill="none" xmlns="http://www.w3.org/2000/svg">
<path fill-rule="evenodd" clip-rule="evenodd" d="M13.2374 9.90922C13.2319 9.80614 13.2265 9.70849 13.2211 9.61626C13.1885 9.08459 13.0746 8.56378 12.8793 8.07009C11.3114 4.12058 10.7472 1.74979 10.5628 0.653909C10.5356 0.480304 10.5194 0.409777 10.4922 0.355525C10.4434 0.268723 10.3566 0.198196 10.2698 0.16022C10.2427 0.14937 10.2047 0.133094 10.1667 0.122244C10.0257 0.0734176 9.8792 0.0354415 9.78155 0.0137409C9.69475 -0.00795969 9.60252 0.0137409 9.53199 0.0679924C9.46689 0.122244 9.42891 0.209046 9.42891 0.295849V4.97775C9.63507 5.01031 9.85208 5.08626 10.042 5.19476C10.3458 5.36837 10.5356 5.60707 10.579 5.85663C10.7961 7.26174 11.2789 9.57828 11.6207 10.0774C11.6695 10.1533 11.6532 10.2564 11.5773 10.3053C11.5501 10.327 11.5176 10.3324 11.485 10.3324C11.4308 10.3324 11.382 10.3053 11.3494 10.2619C10.9588 9.68679 10.4705 7.28344 10.259 5.90546C10.221 5.66132 9.9009 5.44432 9.56454 5.34124C9.49944 5.31954 9.43434 5.36837 9.43434 5.43889V15.1011C9.43434 15.1282 9.45604 15.3452 9.59167 15.6056C9.78155 15.98 10.1016 16.2675 10.5411 16.4682C10.7418 16.5605 10.9751 16.6581 11.2301 16.7666C11.9516 17.0758 12.7545 17.4176 13.2699 17.7486L14.4689 14.2927C14.0077 13.7177 13.6877 12.9961 13.4924 12.0901C13.3079 11.2872 13.2645 10.4897 13.2374 9.90922ZM16.4979 20L18.4238 14.4609L15.2772 13.2837L13.3513 18.8227L16.4979 20ZM5.18644 9.90922C5.19187 9.80614 5.1973 9.70849 5.20272 9.61626C5.23527 9.08459 5.3492 8.56378 5.5445 8.07009C7.11237 4.11516 7.67659 1.74436 7.85562 0.648484C7.88275 0.474879 7.89902 0.404352 7.92615 0.3501C7.97497 0.263298 8.06177 0.192771 8.14858 0.154795C8.1757 0.143944 8.21368 0.127669 8.25166 0.116819C8.39271 0.0679924 8.53919 0.0300164 8.63684 0.00831575C8.72364 -0.0133849 8.81587 0.00831574 8.8864 0.0625673C8.9515 0.116819 8.98948 0.203621 8.98948 0.290424V4.97233C8.78332 5.00488 8.56631 5.08083 8.37643 5.18934C8.07263 5.36294 7.88275 5.60165 7.83934 5.8512C7.62234 7.25632 7.1395 9.57286 6.79771 10.072C6.74889 10.1479 6.76516 10.251 6.84112 10.2998C6.86824 10.3215 6.90079 10.327 6.93334 10.327C6.9876 10.327 7.03642 10.2998 7.06897 10.2564C7.45958 9.68136 7.94785 7.27802 8.15943 5.90003C8.1974 5.6559 8.51749 5.43889 8.85385 5.33582C8.91895 5.31411 8.98405 5.36294 8.98405 5.43347V15.0957C8.98405 15.1228 8.96235 15.3398 8.82672 15.6002C8.63684 15.9745 8.31676 16.2621 7.87732 16.4628C7.67659 16.555 7.44331 16.6527 7.18833 16.7612C6.46678 17.0704 5.66386 17.4122 5.14847 17.7431L3.94951 14.2873C4.41065 13.7122 4.73073 12.9907 4.92604 12.0847C5.11049 11.2872 5.15389 10.4897 5.18644 9.90922ZM1.9205 20L0 14.4609L3.14116 13.2837L5.06709 18.8227L1.9205 20Z" fill="#F6A73B"/>
</svg>
