<svg xmlns="http://www.w3.org/2000/svg" width="39.507" height="28.361" viewBox="0 0 39.507 28.361">
  <g id="right-icon-slick-hover" transform="translate(-1249.645 -1836.32)">
    <path id="Subtraction_1" data-name="Subtraction 1" d="M14.18,28.361a14.179,14.179,0,1,1,12.262-21.3H24.771a12.763,12.763,0,1,0,.024,14.2h1.668a14.3,14.3,0,0,1-5.1,5.139,14.094,14.094,0,0,1-7.186,1.959Z" transform="translate(1249.645 1836.32)" fill="#f6a73b"/>
    <path id="Path_9787" data-name="Path 9787" d="M6.233,25.847l4.777-4.777a.848.848,0,0,0-1.2-1.2L6.482,23.2V.853a.853.853,0,1,0-1.705,0V23.191L1.449,19.864a.848.848,0,1,0-1.2,1.2L5.026,25.84a.862.862,0,0,0,1.206.007Z" transform="translate(1263.063 1856.129) rotate(-90)" fill="#f6a73b"/>
  </g>
</svg>
