<svg xmlns="http://www.w3.org/2000/svg" width="16" height="16" viewBox="0 0 16 16">
  <g id="Group_114" data-name="Group 114" transform="translate(-1.5 -1.5)">
    <path id="Path_9838" data-name="Path 9838" d="M9.5,1.5a8,8,0,1,0,8,8,8,8,0,0,0-8-8Zm1.6,5.655h.383a.533.533,0,0,1,0,1.067h-.254a2.53,2.53,0,0,1-2.516,2.287h-.17l2.03,2.14a.533.533,0,1,1-.774.734l-2.884-3.04a.533.533,0,0,1,.387-.9h1.41a1.46,1.46,0,0,0,1.436-1.22H7.327a.533.533,0,1,1,0-1.067H9.918a1.458,1.458,0,0,0-1.2-.634H7.305a.533.533,0,0,1,0-1.067h1.41l.058,0h2.711a.533.533,0,1,1,0,1.067h-.708a2.522,2.522,0,0,1,.325.631Z" fill="#1d4c74"/>
  </g>
</svg>
