<svg xmlns="http://www.w3.org/2000/svg" width="27.793" height="15.861" viewBox="0 0 27.793 15.861">
  <g id="speedo-metter-icon" transform="translate(0 -109.908)">
    <g id="Group_95" data-name="Group 95" transform="translate(0 109.908)">
      <path id="Path_9828" data-name="Path 9828" d="M0,266.368H3.7a9.09,9.09,0,0,1,.953-3.648l-3.432-2.066A13.846,13.846,0,0,0,0,266.368Z" transform="translate(0 -252.472)" fill="#2d7b56"/>
      <path id="Path_9829" data-name="Path 9829" d="M283.694,113.059l-.718,5.379a9.126,9.126,0,0,1,3.675,2.072l4.2-4.016A13.849,13.849,0,0,0,283.694,113.059Z" transform="translate(-267.615 -112.888)" fill="#2d7b56"/>
      <path id="Path_9830" data-name="Path 9830" d="M36.539,162.53l3.529,2.125a9.183,9.183,0,0,1,2.908-2.533l-2.665-3.7a13.967,13.967,0,0,0-3.773,4.105Z" transform="translate(-34.556 -155.791)" fill="#2d7b56"/>
      <path id="Path_9831" data-name="Path 9831" d="M375.069,197.776l-4.246,4.06a9.1,9.1,0,0,1,1.834,5.067h5.83A13.842,13.842,0,0,0,375.069,197.776Z" transform="translate(-350.694 -193.006)" fill="#2d7b56"/>
      <path id="Path_9832" data-name="Path 9832" d="M138,115.15l.7-5.23c-.186-.007-.373-.012-.561-.012a13.832,13.832,0,0,0-6.765,1.756l2.815,3.905a9.13,9.13,0,0,1,2.887-.466A9.24,9.24,0,0,1,138,115.15Z" transform="translate(-124.242 -109.908)" fill="#2d7b56"/>
      <path id="Path_9833" data-name="Path 9833" d="M209.981,220.848a2.5,2.5,0,1,0,5,0c0-1.38-2.5-7.762-2.5-7.762S209.981,219.468,209.981,220.848Z" transform="translate(-198.583 -207.485)" fill="#2d7b56"/>
    </g>
  </g>
</svg>
