<svg id="train-icon" xmlns="http://www.w3.org/2000/svg" width="17.112" height="20.321" viewBox="0 0 17.112 20.321">
  <g id="Group_50" data-name="Group 50" transform="translate(0)">
    <g id="Group_49" data-name="Group 49" transform="translate(0)">
      <path id="Path_9794" data-name="Path 9794" d="M40.556,0C36.278,0,32,.535,32,4.278V14.439a3.747,3.747,0,0,0,3.743,3.743l-1.6,1.6v.535h2.385l2.139-2.139H42.7l2.139,2.139h2.139v-.535l-1.6-1.6a3.747,3.747,0,0,0,3.743-3.743V4.278C49.112.535,45.284,0,40.556,0ZM35.743,16.043a1.6,1.6,0,1,1,1.6-1.6A1.6,1.6,0,0,1,35.743,16.043Zm3.743-7.487H34.139V4.278h5.348V8.556Zm5.882,7.487a1.6,1.6,0,1,1,1.6-1.6A1.6,1.6,0,0,1,45.369,16.043Zm1.6-7.487H41.626V4.278h5.348Z" transform="translate(-32 0)" fill="#f6a73b"/>
    </g>
  </g>
</svg>
